<svg id="svg" version="1.1" xmlns="http://www.w3.org/2000/svg" xmlns:xlink="http://www.w3.org/1999/xlink" width="400" height="400" viewBox="0, 0, 400,400"><g id="svgg"><path id="path0" d="M207.000 1.528 C 210.883 3.462,214.226 6.130,217.114 9.600 C 221.200 14.509,221.643 15.168,224.918 21.200 C 226.919 24.886,227.132 25.338,229.909 31.800 C 231.072 34.504,234.565 44.708,235.592 48.400 C 235.867 49.390,236.231 50.650,236.400 51.200 C 237.130 53.576,238.722 59.826,239.202 62.200 C 239.380 63.080,239.739 64.880,240.000 66.200 C 240.261 67.520,240.646 69.410,240.856 70.400 C 241.066 71.390,241.400 73.190,241.599 74.400 C 241.798 75.610,242.143 77.680,242.366 79.000 C 243.087 83.267,243.633 86.931,244.021 90.100 C 244.229 91.805,244.581 94.685,244.803 96.500 C 247.054 114.950,247.788 147.328,246.378 166.000 C 245.066 183.386,244.704 186.900,243.187 197.000 C 242.989 198.320,242.642 200.660,242.417 202.200 C 241.808 206.361,241.254 209.603,240.845 211.400 C 240.322 213.695,239.569 217.128,239.156 219.100 C 238.960 220.035,238.620 221.610,238.400 222.600 C 238.180 223.590,237.838 225.165,237.641 226.100 C 237.443 227.035,236.646 230.230,235.870 233.200 C 235.093 236.170,233.465 242.470,232.251 247.200 C 228.417 262.142,226.374 270.058,225.129 274.800 C 224.464 277.330,223.829 279.889,223.717 280.487 L 223.513 281.574 246.056 281.703 C 258.455 281.774,269.003 281.980,269.495 282.161 C 270.188 282.416,270.455 282.322,270.676 281.746 C 270.833 281.337,271.375 280.588,271.881 280.083 C 272.386 279.577,272.803 279.037,272.806 278.882 C 272.810 278.727,273.348 277.970,274.002 277.200 C 275.952 274.905,276.000 274.843,276.000 274.613 C 276.000 274.492,276.540 273.828,277.200 273.137 C 277.860 272.446,278.400 271.728,278.400 271.541 C 278.400 271.354,279.120 270.459,280.000 269.552 C 280.880 268.645,281.600 267.727,281.600 267.512 C 281.600 267.297,282.140 266.617,282.800 266.000 C 283.460 265.383,284.000 264.663,284.000 264.400 C 284.000 264.137,284.540 263.417,285.200 262.800 C 285.860 262.183,286.400 261.516,286.400 261.318 C 286.400 261.119,286.985 260.300,287.700 259.497 C 290.113 256.789,291.600 254.856,291.600 254.427 C 291.600 254.193,292.320 253.259,293.200 252.352 C 294.080 251.445,294.800 250.544,294.800 250.348 C 294.800 250.153,295.340 249.428,296.000 248.737 C 296.660 248.046,297.200 247.310,297.200 247.101 C 297.200 246.892,297.740 246.217,298.400 245.600 C 299.060 244.983,299.600 244.316,299.600 244.118 C 299.600 243.919,300.185 243.113,300.900 242.326 C 302.508 240.558,304.476 238.105,304.973 237.251 C 305.178 236.898,305.670 236.262,306.065 235.838 C 306.460 235.414,307.281 234.332,307.888 233.434 C 308.496 232.535,309.310 231.509,309.697 231.153 C 310.083 230.797,310.400 230.284,310.400 230.014 C 310.400 229.743,310.940 229.017,311.600 228.400 C 312.260 227.783,312.800 227.084,312.800 226.846 C 312.800 226.608,313.249 225.916,313.797 225.307 C 315.931 222.939,316.799 221.780,316.800 221.300 C 316.800 221.025,316.950 220.800,317.132 220.800 C 317.315 220.800,317.719 220.305,318.030 219.700 C 318.340 219.095,318.911 218.309,319.297 217.953 C 319.684 217.597,320.000 217.027,320.000 216.686 C 320.000 216.346,320.135 216.007,320.300 215.933 C 320.676 215.766,321.975 213.636,322.271 212.700 C 322.393 212.315,322.652 212.000,322.847 212.000 C 323.041 212.000,323.200 211.640,323.200 211.200 C 323.200 210.760,323.362 210.400,323.560 210.400 C 323.759 210.400,324.254 209.591,324.660 208.601 C 325.067 207.612,325.535 206.802,325.700 206.801 C 325.865 206.801,326.000 206.440,326.000 206.000 C 326.000 205.560,326.180 205.200,326.400 205.200 C 326.620 205.200,326.800 204.840,326.800 204.400 C 326.800 203.960,326.980 203.600,327.200 203.600 C 327.420 203.600,327.600 203.240,327.600 202.800 C 327.600 202.360,327.780 202.000,328.000 202.000 C 328.220 202.000,328.400 201.640,328.400 201.200 C 328.400 200.760,328.580 200.400,328.800 200.400 C 329.020 200.400,329.200 200.040,329.200 199.600 C 329.200 199.160,329.380 198.800,329.600 198.800 C 329.820 198.800,330.000 198.260,330.000 197.600 C 330.000 196.940,330.180 196.400,330.400 196.400 C 330.620 196.400,330.800 196.051,330.800 195.624 C 330.800 195.197,330.980 194.736,331.200 194.600 C 331.420 194.464,331.600 193.913,331.600 193.376 C 331.600 192.839,331.780 192.400,332.000 192.400 C 332.220 192.400,332.400 192.128,332.400 191.795 C 332.400 191.462,332.580 190.832,332.800 190.395 C 333.020 189.958,333.380 189.242,333.600 188.805 C 333.820 188.368,334.000 187.648,334.000 187.205 C 334.000 186.762,334.180 186.400,334.400 186.400 C 334.620 186.400,334.800 185.871,334.800 185.224 C 334.800 184.577,334.980 183.936,335.200 183.800 C 335.420 183.664,335.600 183.034,335.600 182.400 C 335.600 181.766,335.780 181.136,336.000 181.000 C 336.220 180.864,336.400 180.223,336.400 179.576 C 336.400 178.929,336.580 178.400,336.800 178.400 C 337.020 178.400,337.200 177.680,337.200 176.800 C 337.200 175.920,337.380 175.200,337.600 175.200 C 337.820 175.200,338.000 174.491,338.000 173.624 C 338.000 172.757,338.180 171.936,338.400 171.800 C 338.620 171.664,338.800 170.854,338.800 170.000 C 338.800 169.146,338.957 168.350,339.150 168.231 C 339.342 168.112,339.623 166.976,339.774 165.707 C 339.925 164.438,340.221 162.050,340.432 160.400 C 341.569 151.490,341.836 125.469,340.802 124.200 C 340.623 123.980,340.373 122.720,340.246 121.400 C 339.652 115.204,339.505 114.174,339.165 113.820 C 338.964 113.611,338.800 112.677,338.800 111.744 C 338.800 110.811,338.620 109.936,338.400 109.800 C 338.180 109.664,338.000 108.933,338.000 108.176 C 338.000 107.419,337.820 106.800,337.600 106.800 C 337.380 106.800,337.200 106.080,337.200 105.200 C 337.200 104.320,337.020 103.600,336.800 103.600 C 336.580 103.600,336.400 102.981,336.400 102.224 C 336.400 101.467,336.220 100.736,336.000 100.600 C 335.780 100.464,335.600 99.823,335.600 99.176 C 335.600 98.529,335.420 98.000,335.200 98.000 C 334.980 98.000,334.800 97.460,334.800 96.800 C 334.800 96.140,334.620 95.600,334.400 95.600 C 334.180 95.600,334.000 95.150,334.000 94.600 C 334.000 94.050,333.820 93.600,333.600 93.600 C 333.380 93.600,333.200 93.161,333.200 92.624 C 333.200 92.087,333.020 91.536,332.800 91.400 C 332.580 91.264,332.400 90.803,332.400 90.376 C 332.400 89.949,332.220 89.600,332.000 89.600 C 331.780 89.600,331.600 89.060,331.600 88.400 C 331.600 87.740,331.420 87.200,331.200 87.200 C 330.980 87.200,330.800 86.761,330.800 86.224 C 330.800 85.687,330.620 85.136,330.400 85.000 C 330.180 84.864,330.000 84.403,330.000 83.976 C 330.000 83.549,329.820 83.200,329.600 83.200 C 329.380 83.200,329.200 82.840,329.200 82.400 C 329.200 81.960,329.020 81.600,328.800 81.600 C 328.580 81.600,328.400 81.240,328.400 80.800 C 328.400 80.360,328.220 80.000,328.000 80.000 C 327.780 80.000,327.600 79.640,327.600 79.200 C 327.600 78.760,327.420 78.400,327.200 78.400 C 326.980 78.400,326.800 78.040,326.800 77.600 C 326.800 77.160,326.620 76.800,326.400 76.800 C 326.180 76.800,326.000 76.530,326.000 76.200 C 326.000 75.870,325.843 75.600,325.650 75.600 C 325.457 75.600,325.189 75.045,325.053 74.366 C 324.918 73.688,324.445 72.625,324.003 72.005 C 323.561 71.384,323.200 70.679,323.200 70.438 C 323.200 70.197,323.020 70.000,322.800 70.000 C 322.580 70.000,322.400 69.722,322.400 69.383 C 322.400 69.044,322.040 68.380,321.600 67.908 C 321.160 67.436,320.800 66.813,320.800 66.525 C 320.800 66.236,320.620 66.000,320.400 66.000 C 320.180 66.000,320.000 65.764,320.000 65.475 C 320.000 65.187,319.640 64.564,319.200 64.092 C 318.760 63.620,318.400 62.956,318.400 62.617 C 318.400 62.278,318.220 62.000,318.000 62.000 C 317.780 62.000,317.600 61.810,317.600 61.578 C 317.600 61.346,317.061 60.581,316.402 59.878 C 315.743 59.175,315.203 58.447,315.202 58.260 C 315.201 58.074,314.660 57.417,314.000 56.800 C 313.340 56.183,312.800 55.463,312.800 55.200 C 312.800 54.937,312.260 54.217,311.600 53.600 C 310.940 52.983,310.400 52.326,310.400 52.140 C 310.399 51.799,310.204 51.556,306.569 47.368 C 303.560 43.901,295.216 35.600,294.740 35.600 C 294.508 35.600,293.301 34.552,292.059 33.270 C 290.816 31.989,288.720 30.145,287.400 29.171 C 286.080 28.198,284.910 27.292,284.800 27.157 C 284.690 27.022,284.060 26.632,283.400 26.290 C 282.740 25.948,281.840 25.338,281.400 24.934 C 280.960 24.530,280.105 23.945,279.500 23.632 C 278.895 23.320,278.400 22.915,278.400 22.732 C 278.400 22.550,278.106 22.400,277.747 22.400 C 277.388 22.400,276.803 22.071,276.447 21.670 C 276.091 21.268,275.215 20.684,274.500 20.372 C 273.785 20.060,273.200 19.669,273.200 19.502 C 273.200 19.336,272.964 19.200,272.675 19.200 C 272.387 19.200,271.764 18.840,271.292 18.400 C 270.820 17.960,270.156 17.600,269.817 17.600 C 269.478 17.600,269.200 17.453,269.200 17.274 C 269.200 16.865,266.119 15.200,265.362 15.200 C 265.053 15.200,264.800 15.020,264.800 14.800 C 264.800 14.580,264.535 14.400,264.212 14.400 C 263.889 14.400,262.983 14.040,262.200 13.600 C 261.417 13.160,260.526 12.800,260.221 12.800 C 259.916 12.800,259.607 12.665,259.533 12.500 C 259.317 12.013,254.352 9.600,253.567 9.600 C 253.171 9.600,252.742 9.430,252.614 9.223 C 252.486 9.016,251.576 8.725,250.591 8.578 C 249.606 8.430,248.800 8.150,248.800 7.955 C 248.800 7.760,248.260 7.600,247.600 7.600 C 246.940 7.600,246.400 7.420,246.400 7.200 C 246.400 6.980,245.860 6.800,245.200 6.800 C 244.540 6.800,244.000 6.620,244.000 6.400 C 244.000 6.180,243.460 6.000,242.800 6.000 C 242.140 6.000,241.600 5.820,241.600 5.600 C 241.600 5.380,241.071 5.200,240.424 5.200 C 239.777 5.200,239.148 5.040,239.027 4.844 C 238.906 4.649,238.131 4.373,237.304 4.233 C 233.651 3.611,233.200 3.493,233.200 3.156 C 233.200 2.960,232.480 2.800,231.600 2.800 C 230.720 2.800,230.000 2.620,230.000 2.400 C 230.000 2.178,228.933 2.000,227.600 2.000 C 226.267 2.000,225.200 1.822,225.200 1.600 C 225.200 1.378,224.144 1.200,222.833 1.200 C 221.532 1.200,220.405 1.014,220.329 0.788 C 220.244 0.532,217.074 0.291,211.996 0.154 L 203.800 -0.066 207.000 1.528 M163.600 344.800 C 163.600 355.140,163.744 363.600,163.920 363.600 C 164.096 363.600,164.415 363.425,164.630 363.210 C 164.844 362.996,167.985 362.771,171.610 362.710 L 178.200 362.600 178.304 344.300 L 178.408 326.000 171.004 326.000 L 163.600 326.000 163.600 344.800 M221.696 344.300 L 221.800 362.600 228.459 362.709 C 233.350 362.790,235.233 362.958,235.553 363.343 C 235.837 363.685,236.026 367.799,236.100 375.233 C 236.162 381.485,236.255 372.965,236.306 356.300 L 236.400 326.000 228.996 326.000 L 221.592 326.000 221.696 344.300 " stroke="none" fill="#e32404" fill-rule="evenodd"></path><path id="path1" d="M196.200 0.451 C 186.811 3.734,177.900 13.913,171.908 28.200 C 171.539 29.080,170.935 30.520,170.565 31.400 C 162.754 50.022,156.737 78.498,154.422 107.800 C 153.053 125.127,152.848 153.399,153.988 167.800 C 154.834 178.504,155.714 187.486,156.357 192.000 C 158.013 203.625,159.059 209.753,160.622 217.000 C 162.767 226.945,162.474 225.757,168.799 250.200 C 169.425 252.620,171.403 260.347,173.193 267.371 C 174.983 274.395,176.624 280.472,176.840 280.874 C 177.214 281.573,178.290 281.602,200.098 281.503 L 222.964 281.400 223.720 278.600 C 224.135 277.060,224.646 275.080,224.856 274.200 C 225.424 271.812,225.895 269.984,226.400 268.200 C 226.830 266.681,227.123 265.541,227.968 262.100 C 228.171 261.275,228.725 259.160,229.200 257.400 C 230.009 254.402,230.236 253.513,231.166 249.700 C 231.367 248.875,232.252 245.410,233.132 242.000 C 236.162 230.260,237.542 224.587,238.582 219.600 C 239.156 216.850,239.787 213.880,239.984 213.000 C 240.182 212.120,240.525 210.590,240.746 209.600 C 240.967 208.610,241.349 206.360,241.595 204.600 C 241.840 202.840,242.201 200.410,242.395 199.200 C 243.785 190.577,244.128 187.683,245.193 175.600 C 247.272 152.013,246.936 118.636,244.403 97.200 C 244.156 95.110,243.794 92.050,243.598 90.400 C 243.238 87.368,242.640 83.202,242.248 81.000 C 242.131 80.340,241.836 78.540,241.593 77.000 C 241.148 74.179,240.652 71.548,240.011 68.600 C 239.820 67.720,239.455 65.920,239.199 64.600 C 237.817 57.458,233.443 41.774,231.613 37.400 C 231.429 36.960,230.869 35.520,230.370 34.200 C 224.188 17.868,215.667 6.059,207.200 2.090 C 203.447 0.331,198.606 -0.391,196.200 0.451 " stroke="none" fill="#fbd314" fill-rule="evenodd"></path><path id="path2" d="M183.200 0.297 C 181.990 0.379,180.829 0.616,180.620 0.823 C 180.411 1.030,179.207 1.200,177.944 1.200 C 176.681 1.200,175.536 1.380,175.400 1.600 C 175.264 1.820,174.094 2.000,172.800 2.000 C 171.506 2.000,170.336 2.180,170.200 2.400 C 170.064 2.620,169.423 2.800,168.776 2.800 C 168.129 2.800,167.600 2.980,167.600 3.200 C 167.600 3.420,166.779 3.600,165.776 3.600 C 164.663 3.600,164.049 3.756,164.200 4.000 C 164.347 4.238,163.871 4.400,163.024 4.400 C 162.241 4.400,161.600 4.580,161.600 4.800 C 161.600 5.020,160.880 5.200,160.000 5.200 C 159.120 5.200,158.400 5.380,158.400 5.600 C 158.400 5.820,157.961 6.000,157.424 6.000 C 156.887 6.000,156.336 6.180,156.200 6.400 C 156.064 6.620,155.524 6.800,155.000 6.800 C 154.476 6.800,153.936 6.980,153.800 7.200 C 153.664 7.420,153.203 7.600,152.776 7.600 C 152.349 7.600,152.000 7.780,152.000 8.000 C 152.000 8.220,151.460 8.400,150.800 8.400 C 150.140 8.400,149.600 8.592,149.600 8.827 C 149.600 9.066,149.262 9.147,148.834 9.011 C 148.412 8.877,147.952 8.955,147.810 9.184 C 147.669 9.413,147.229 9.600,146.833 9.600 C 146.438 9.600,144.918 10.223,143.457 10.985 C 141.996 11.747,140.797 12.242,140.794 12.085 C 140.791 11.928,140.656 11.980,140.494 12.200 C 140.146 12.674,135.661 14.933,134.807 15.065 C 134.481 15.115,134.151 15.346,134.074 15.578 C 133.997 15.810,133.622 16.000,133.242 16.000 C 132.862 16.000,132.193 16.315,131.755 16.700 C 130.618 17.700,129.312 18.400,128.582 18.400 C 128.236 18.400,128.064 18.580,128.200 18.800 C 128.336 19.020,128.159 19.200,127.807 19.200 C 127.455 19.200,126.780 19.560,126.308 20.000 C 125.836 20.440,125.078 20.803,124.625 20.806 C 123.946 20.811,123.906 20.881,124.400 21.200 C 124.910 21.529,124.892 21.589,124.283 21.594 C 123.889 21.597,123.349 21.791,123.083 22.024 C 122.613 22.436,120.632 23.744,119.108 24.649 C 118.692 24.896,117.911 25.481,117.373 25.949 C 116.834 26.417,116.125 26.800,115.797 26.800 C 115.469 26.800,115.200 27.051,115.200 27.358 C 115.200 27.665,114.435 28.295,113.500 28.758 C 112.565 29.221,111.948 29.600,112.129 29.600 C 112.605 29.600,111.383 30.750,110.763 30.886 C 110.475 30.949,108.843 32.395,107.137 34.100 C 105.430 35.805,103.888 37.200,103.710 37.200 C 103.221 37.200,98.076 42.343,98.321 42.588 C 98.438 42.704,98.233 42.800,97.867 42.800 C 97.500 42.800,97.200 42.986,97.200 43.213 C 97.200 43.441,96.570 44.257,95.800 45.027 C 95.030 45.797,94.400 46.601,94.400 46.813 C 94.400 47.026,94.175 47.208,93.900 47.217 C 93.625 47.226,92.680 48.199,91.800 49.379 C 90.920 50.558,90.037 51.423,89.838 51.300 C 89.639 51.177,89.604 51.283,89.760 51.535 C 89.916 51.788,89.586 52.450,89.022 53.015 C 88.460 53.577,87.997 54.343,87.994 54.718 C 87.989 55.305,87.934 55.316,87.600 54.800 C 87.280 54.304,87.211 54.341,87.206 55.012 C 87.203 55.458,86.840 56.083,86.400 56.400 C 85.960 56.717,85.600 57.138,85.600 57.335 C 85.600 57.533,85.060 58.309,84.400 59.061 C 83.740 59.813,83.200 60.612,83.200 60.838 C 83.200 61.063,83.016 61.133,82.790 60.994 C 82.565 60.855,82.406 60.889,82.437 61.070 C 82.569 61.828,82.377 62.433,82.067 62.241 C 81.883 62.128,81.733 62.266,81.733 62.549 C 81.733 62.831,81.188 63.858,80.521 64.831 C 79.855 65.804,79.183 67.005,79.028 67.500 C 78.873 67.995,78.578 68.400,78.373 68.400 C 78.168 68.400,78.000 68.661,78.000 68.980 C 78.000 69.299,77.745 69.704,77.432 69.880 C 77.120 70.056,76.805 70.470,76.732 70.800 C 76.660 71.130,76.501 71.490,76.379 71.600 C 76.164 71.795,75.479 73.251,74.356 75.900 C 74.053 76.615,73.669 77.200,73.502 77.200 C 73.336 77.200,73.200 77.449,73.200 77.754 C 73.200 78.584,72.160 80.427,71.861 80.127 C 71.717 79.984,71.600 80.357,71.600 80.957 C 71.600 81.557,71.458 81.960,71.285 81.852 C 71.112 81.745,70.933 82.101,70.888 82.642 C 70.843 83.183,70.445 84.014,70.003 84.489 C 69.562 84.963,69.200 85.868,69.200 86.499 C 69.200 87.163,69.031 87.543,68.800 87.400 C 68.567 87.256,68.400 87.663,68.400 88.376 C 68.400 89.049,68.220 89.600,68.000 89.600 C 67.780 89.600,67.600 90.140,67.600 90.800 C 67.600 91.460,67.459 92.000,67.287 92.000 C 67.115 92.000,66.725 92.855,66.420 93.900 C 65.847 95.865,65.646 96.378,64.862 97.895 C 64.608 98.387,64.400 99.342,64.400 100.018 C 64.400 100.694,64.256 101.158,64.080 101.049 C 63.904 100.941,63.717 101.496,63.664 102.283 C 63.611 103.070,63.395 104.036,63.184 104.431 C 62.973 104.825,62.800 105.519,62.800 105.974 C 62.800 106.428,62.649 106.800,62.465 106.800 C 62.280 106.800,62.105 107.462,62.074 108.271 C 62.044 109.079,61.871 109.844,61.690 109.971 C 61.509 110.097,61.308 111.010,61.243 111.999 C 61.178 112.989,61.022 113.964,60.897 114.166 C 60.772 114.368,60.598 115.538,60.509 116.767 C 60.420 117.995,60.180 119.060,59.974 119.133 C 59.768 119.207,59.600 120.411,59.600 121.810 C 59.600 123.208,59.418 124.465,59.196 124.602 C 58.954 124.752,58.820 126.815,58.861 129.759 C 58.899 132.459,58.816 134.850,58.679 135.073 C 58.000 136.172,59.222 162.446,59.996 163.400 C 60.175 163.620,60.384 164.700,60.460 165.800 C 60.537 166.900,60.746 167.908,60.925 168.039 C 61.104 168.171,61.284 169.008,61.325 169.900 C 61.366 170.791,61.517 171.449,61.660 171.362 C 61.803 171.274,62.019 171.967,62.141 172.901 C 62.567 176.160,62.891 177.609,63.244 177.827 C 63.440 177.948,63.600 178.429,63.600 178.895 C 63.600 179.796,64.265 182.139,64.849 183.295 C 65.042 183.677,65.200 184.542,65.200 185.218 C 65.200 185.936,65.366 186.344,65.600 186.200 C 65.820 186.064,66.000 186.301,66.000 186.728 C 66.000 187.154,66.263 188.131,66.584 188.900 C 66.905 189.669,67.040 190.440,66.884 190.613 C 66.728 190.787,66.825 190.799,67.100 190.641 C 67.445 190.442,67.600 190.671,67.600 191.376 C 67.600 191.939,67.780 192.400,68.000 192.400 C 68.220 192.400,68.400 192.760,68.400 193.200 C 68.400 193.640,68.580 194.000,68.800 194.000 C 69.020 194.000,69.200 194.540,69.200 195.200 C 69.200 195.860,69.380 196.400,69.600 196.400 C 69.820 196.400,70.000 196.760,70.000 197.200 C 70.000 197.640,70.180 198.000,70.400 198.000 C 70.620 198.000,70.800 198.249,70.800 198.554 C 70.800 198.859,71.061 199.611,71.380 200.226 C 71.698 200.840,71.850 201.518,71.718 201.733 C 71.584 201.950,71.682 201.996,71.938 201.838 C 72.230 201.658,72.400 201.856,72.400 202.376 C 72.400 202.829,72.535 203.201,72.700 203.203 C 73.059 203.207,74.000 205.144,74.000 205.880 C 74.000 206.166,74.180 206.400,74.400 206.400 C 74.620 206.400,74.800 206.760,74.800 207.200 C 74.800 207.640,75.010 208.000,75.267 208.000 C 75.523 208.000,75.619 208.115,75.478 208.255 C 75.338 208.395,75.578 209.008,76.012 209.617 C 76.445 210.225,76.800 210.991,76.800 211.319 C 76.800 211.646,77.081 212.022,77.425 212.154 C 77.769 212.286,77.939 212.576,77.802 212.797 C 77.665 213.019,77.741 213.200,77.971 213.200 C 78.201 213.200,78.662 213.785,78.996 214.500 C 79.787 216.195,82.081 219.799,83.154 221.033 C 83.619 221.568,84.000 222.285,84.000 222.627 C 84.000 222.968,84.145 223.158,84.321 223.049 C 84.498 222.940,85.080 223.559,85.616 224.425 C 86.151 225.291,86.714 226.000,86.867 226.000 C 87.021 226.000,87.256 226.346,87.390 226.768 C 87.524 227.191,88.256 228.216,89.017 229.046 C 89.778 229.877,90.400 230.719,90.400 230.918 C 90.400 231.116,90.949 231.792,91.620 232.418 C 92.291 233.045,92.834 233.702,92.828 233.879 C 92.821 234.056,93.307 234.816,93.908 235.570 C 94.509 236.323,95.000 237.048,95.000 237.179 C 95.000 237.311,95.720 238.195,96.600 239.144 C 97.480 240.094,98.365 241.169,98.566 241.535 C 98.767 241.901,99.038 242.290,99.168 242.400 C 99.298 242.510,99.878 243.230,100.457 244.000 C 101.036 244.770,101.886 245.828,102.346 246.352 C 102.807 246.875,103.069 247.488,102.930 247.713 C 102.784 247.949,102.873 248.002,103.138 247.838 C 103.399 247.677,103.600 247.785,103.600 248.088 C 103.600 248.383,103.960 248.883,104.400 249.200 C 104.840 249.517,105.200 250.017,105.200 250.312 C 105.200 250.606,105.380 250.736,105.600 250.600 C 105.820 250.464,106.000 250.633,106.000 250.976 C 106.000 251.319,106.180 251.600,106.400 251.600 C 106.620 251.600,106.800 251.788,106.800 252.018 C 106.800 252.248,107.250 252.886,107.800 253.436 C 108.350 253.986,108.800 254.565,108.800 254.723 C 108.800 254.880,109.416 255.722,110.169 256.593 C 110.922 257.464,111.434 258.345,111.307 258.550 C 111.180 258.756,111.267 258.806,111.499 258.662 C 111.867 258.435,113.363 260.419,113.507 261.326 C 113.535 261.506,114.002 262.001,114.543 262.426 C 115.084 262.852,116.038 264.010,116.663 265.000 C 117.289 265.989,117.935 266.799,118.100 266.799 C 118.265 266.800,118.400 267.081,118.400 267.424 C 118.400 267.767,118.580 267.936,118.800 267.800 C 119.020 267.664,119.200 267.745,119.200 267.980 C 119.200 268.355,120.372 269.851,121.900 271.427 C 122.175 271.711,122.400 272.047,122.400 272.175 C 122.400 272.303,122.940 272.972,123.600 273.663 C 124.260 274.354,124.806 275.117,124.813 275.359 C 124.833 275.995,126.247 277.600,126.788 277.600 C 127.040 277.600,127.127 277.794,126.981 278.031 C 126.835 278.267,127.049 278.781,127.457 279.171 C 127.866 279.561,128.656 280.402,129.214 281.040 L 130.228 282.200 154.014 282.090 C 167.096 282.030,177.601 281.850,177.358 281.690 C 176.766 281.302,176.469 280.295,173.380 268.200 C 169.333 252.359,167.658 245.821,166.409 241.000 C 161.770 223.093,158.910 209.807,157.412 199.200 C 156.837 195.130,156.204 190.720,156.006 189.400 C 155.808 188.080,155.445 184.750,155.201 182.000 C 154.956 179.250,154.583 175.200,154.372 173.000 C 153.234 161.174,152.818 132.157,153.608 119.800 C 154.271 109.427,154.810 102.402,155.189 99.200 C 155.383 97.550,155.754 94.400,156.011 92.200 C 157.540 79.148,161.119 60.523,164.006 50.600 C 164.198 49.940,164.526 48.770,164.736 48.000 C 165.576 44.913,167.287 39.773,168.399 37.000 C 168.575 36.560,168.939 35.570,169.207 34.800 C 169.475 34.030,170.007 32.680,170.388 31.800 C 170.770 30.920,171.418 29.390,171.829 28.400 C 177.853 13.898,186.818 3.622,196.200 0.467 C 197.408 0.061,188.425 -0.057,183.200 0.297 " stroke="none" fill="#5cabf3" fill-rule="evenodd"></path><path id="path3" d="M202.000 0.400 C 202.330 0.613,203.149 0.791,203.820 0.794 C 204.491 0.797,205.253 1.013,205.513 1.273 C 205.774 1.534,206.107 1.626,206.255 1.479 C 206.636 1.098,203.843 -0.001,202.513 0.006 C 201.647 0.011,201.533 0.098,202.000 0.400 M206.800 1.795 C 206.800 1.902,207.448 2.260,208.240 2.591 C 215.633 5.680,226.360 21.617,231.371 36.957 C 231.508 37.374,231.705 37.628,231.810 37.523 C 232.034 37.300,230.869 33.878,229.590 31.000 C 229.101 29.900,228.346 28.190,227.912 27.200 C 226.319 23.565,222.729 16.964,221.059 14.600 C 216.389 7.987,206.800 -0.624,206.800 1.795 M232.000 38.225 C 232.000 38.833,233.327 42.406,233.492 42.241 C 233.699 42.034,232.440 38.000,232.168 38.000 C 232.076 38.000,232.000 38.101,232.000 38.225 M233.600 43.038 C 233.600 43.769,234.909 47.624,235.095 47.439 C 235.321 47.212,234.055 42.800,233.763 42.800 C 233.673 42.800,233.600 42.907,233.600 43.038 M235.234 48.400 C 235.246 48.730,235.411 49.360,235.600 49.800 L 235.944 50.600 235.966 49.800 C 235.978 49.360,235.813 48.730,235.600 48.400 C 235.255 47.867,235.215 47.867,235.234 48.400 M236.251 51.991 C 236.638 54.124,237.516 56.696,237.560 55.828 C 237.600 55.063,237.017 52.935,236.347 51.400 C 236.108 50.851,236.078 51.037,236.251 51.991 M237.600 57.168 C 237.600 57.371,237.978 59.126,238.439 61.068 C 238.901 63.011,239.418 65.410,239.589 66.400 C 239.760 67.390,240.177 69.550,240.516 71.200 C 240.854 72.850,241.334 75.460,241.581 77.000 C 241.829 78.540,242.193 80.790,242.391 82.000 C 242.993 85.688,243.564 89.685,243.819 92.000 C 243.952 93.210,244.226 95.640,244.426 97.400 C 244.627 99.160,244.966 102.917,245.179 105.750 C 245.392 108.582,245.684 111.012,245.828 111.150 C 246.167 111.474,245.694 104.378,244.952 98.000 C 243.732 87.511,243.435 85.329,242.366 79.000 C 242.143 77.680,241.798 75.610,241.599 74.400 C 241.400 73.190,241.066 71.390,240.856 70.400 C 240.646 69.410,240.261 67.520,240.000 66.200 C 238.520 58.707,237.600 55.245,237.600 57.168 M246.115 116.800 C 246.103 119.550,246.225 122.970,246.386 124.400 L 246.678 127.000 246.688 123.800 C 246.694 122.040,246.572 118.620,246.417 116.200 L 246.136 111.800 246.115 116.800 M246.976 138.200 C 246.976 144.360,247.032 146.824,247.099 143.676 C 247.167 140.527,247.167 135.487,247.099 132.476 C 247.031 129.464,246.976 132.040,246.976 138.200 M246.264 157.600 C 246.078 161.890,245.991 166.210,246.070 167.200 C 246.283 169.874,246.883 157.155,246.731 153.200 C 246.635 150.706,246.510 151.878,246.264 157.600 M245.585 169.833 C 245.544 170.854,244.698 181.082,244.381 184.400 C 243.926 189.157,243.491 192.399,242.395 199.200 C 242.201 200.410,241.840 202.840,241.595 204.600 C 241.175 207.609,240.963 208.718,240.014 212.900 C 238.904 217.791,237.600 224.029,237.600 224.452 C 237.600 225.480,238.142 224.319,238.463 222.604 C 238.960 219.942,239.817 215.916,240.845 211.400 C 241.249 209.626,241.802 206.396,242.404 202.300 C 242.998 198.251,243.607 194.108,244.036 191.200 C 244.924 185.179,246.187 170.054,245.831 169.698 C 245.704 169.571,245.593 169.632,245.585 169.833 M237.022 226.729 C 236.858 227.459,236.822 228.156,236.942 228.276 C 237.243 228.577,237.720 226.556,237.499 225.917 C 237.401 225.633,237.186 225.998,237.022 226.729 M235.800 231.600 C 235.417 233.161,235.191 234.524,235.296 234.629 C 235.401 234.734,235.798 233.541,236.178 231.978 C 236.558 230.414,236.785 229.051,236.682 228.949 C 236.579 228.846,236.183 230.039,235.800 231.600 M234.679 235.870 C 233.711 239.517,233.516 240.449,233.684 240.617 C 233.791 240.724,234.198 239.631,234.588 238.188 C 234.979 236.745,235.203 235.469,235.086 235.352 C 234.969 235.235,234.786 235.468,234.679 235.870 M233.000 242.400 C 232.848 243.091,232.814 243.747,232.924 243.857 C 233.034 243.967,233.248 243.491,233.400 242.800 C 233.552 242.109,233.586 241.453,233.476 241.343 C 233.366 241.233,233.152 241.709,233.000 242.400 M232.200 245.600 C 232.048 246.291,232.014 246.947,232.124 247.057 C 232.234 247.167,232.448 246.691,232.600 246.000 C 232.752 245.309,232.786 244.653,232.676 244.543 C 232.566 244.433,232.352 244.909,232.200 245.600 M231.488 248.133 C 231.330 248.536,231.211 249.256,231.225 249.733 C 231.249 250.556,231.271 250.550,231.640 249.625 C 231.854 249.089,231.973 248.369,231.903 248.025 C 231.799 247.511,231.725 247.530,231.488 248.133 M230.649 251.415 C 230.512 251.773,230.416 252.456,230.436 252.933 C 230.462 253.547,230.585 253.408,230.859 252.456 C 231.257 251.072,231.094 250.258,230.649 251.415 M229.770 255.053 C 229.622 255.684,229.235 257.190,228.912 258.400 C 228.588 259.610,228.152 261.320,227.943 262.200 C 227.384 264.557,226.910 266.400,226.400 268.200 C 226.151 269.080,225.771 270.520,225.555 271.400 C 224.610 275.263,224.434 275.950,223.720 278.600 L 222.964 281.400 200.182 281.605 C 184.695 281.744,191.874 281.809,222.600 281.808 C 247.460 281.808,257.835 281.759,245.655 281.700 L 223.510 281.593 223.716 280.497 C 223.828 279.893,224.464 277.330,225.129 274.800 C 228.716 261.138,230.409 254.276,230.234 254.101 C 230.127 253.994,229.918 254.422,229.770 255.053 M167.919 325.898 C 169.744 325.972,172.624 325.972,174.319 325.897 C 176.014 325.822,174.520 325.761,171.000 325.762 C 167.480 325.762,166.094 325.824,167.919 325.898 M225.919 325.898 C 227.744 325.972,230.624 325.972,232.319 325.897 C 234.014 325.822,232.520 325.761,229.000 325.762 C 225.480 325.762,224.094 325.824,225.919 325.898 M178.200 362.400 C 178.052 362.639,175.348 362.805,171.476 362.813 C 162.651 362.830,163.532 361.302,163.734 376.256 C 163.912 389.414,164.075 391.195,165.251 392.862 C 165.663 393.446,166.000 394.081,166.000 394.273 C 166.000 394.466,166.360 394.883,166.800 395.200 C 167.240 395.517,167.600 396.007,167.600 396.288 C 167.600 396.570,167.772 396.800,167.982 396.800 C 168.192 396.800,168.814 397.250,169.364 397.800 C 169.914 398.350,170.627 398.800,170.948 398.800 C 171.270 398.800,171.608 399.025,171.700 399.300 C 171.831 399.694,177.849 399.800,200.000 399.800 C 222.151 399.800,228.169 399.694,228.300 399.300 C 228.392 399.025,228.772 398.800,229.145 398.800 C 229.518 398.800,230.083 398.440,230.400 398.000 C 230.717 397.560,231.207 397.200,231.488 397.200 C 231.770 397.200,232.000 397.028,232.000 396.818 C 232.000 396.608,232.405 396.021,232.900 395.513 C 234.178 394.203,235.450 391.670,235.770 389.800 C 236.223 387.154,236.009 363.893,235.527 363.312 C 235.213 362.934,233.390 362.800,228.575 362.800 C 224.654 362.800,221.948 362.640,221.800 362.400 C 221.640 362.141,213.937 362.000,200.000 362.000 C 186.063 362.000,178.360 362.141,178.200 362.400 " stroke="none" fill="#fb743a" fill-rule="evenodd"></path><path id="path4" d="M113.600 28.436 C 112.936 28.979,112.869 29.115,113.400 28.840 C 114.705 28.166,115.428 27.612,115.000 27.615 C 114.780 27.617,114.150 27.986,113.600 28.436 M104.202 36.398 C 103.803 36.839,103.607 37.200,103.767 37.200 C 104.188 37.200,105.328 35.995,105.112 35.779 C 105.011 35.678,104.602 35.956,104.202 36.398 M96.289 44.005 C 95.526 44.896,95.384 45.381,95.998 45.001 C 96.390 44.759,97.346 43.200,97.103 43.200 C 97.034 43.200,96.668 43.562,96.289 44.005 M111.234 258.247 C 111.765 258.933,112.280 259.423,112.379 259.335 C 112.477 259.247,112.043 258.686,111.413 258.088 L 110.269 257.000 111.234 258.247 M129.206 281.441 C 129.203 281.683,129.740 282.446,130.400 283.137 C 131.060 283.828,131.600 284.553,131.600 284.748 C 131.600 284.944,132.320 285.845,133.200 286.752 C 134.080 287.659,134.800 288.554,134.800 288.741 C 134.800 288.928,135.340 289.646,136.000 290.337 C 136.660 291.028,137.200 291.702,137.200 291.836 C 137.200 291.970,137.740 292.583,138.400 293.200 C 139.060 293.817,139.600 294.492,139.600 294.701 C 139.600 294.910,140.128 295.634,140.774 296.309 C 141.419 296.985,142.218 298.046,142.550 298.669 C 142.882 299.291,143.614 300.323,144.177 300.962 C 144.739 301.601,145.200 302.239,145.200 302.379 C 145.200 302.519,145.830 303.301,146.600 304.118 C 147.370 304.934,148.001 305.736,148.002 305.901 C 148.003 306.065,148.543 306.775,149.202 307.478 C 149.861 308.181,150.400 308.874,150.400 309.018 C 150.400 309.161,150.940 309.783,151.600 310.400 C 152.260 311.017,152.800 311.697,152.800 311.912 C 152.800 312.127,153.520 313.045,154.400 313.952 C 155.280 314.859,156.000 315.798,156.000 316.040 C 156.000 316.281,156.540 316.983,157.200 317.600 C 157.860 318.217,158.400 318.874,158.400 319.060 C 158.401 319.354,158.997 320.157,160.792 322.283 C 161.016 322.549,161.200 322.882,161.200 323.023 C 161.200 323.164,161.785 323.862,162.500 324.574 L 163.800 325.868 200.000 325.868 L 236.200 325.868 237.500 324.574 C 238.215 323.862,238.800 323.162,238.800 323.018 C 238.800 322.874,239.340 322.181,240.001 321.478 C 240.662 320.775,241.317 319.844,241.457 319.408 C 241.597 318.972,242.227 318.135,242.856 317.548 C 243.485 316.960,244.000 316.281,244.000 316.040 C 244.000 315.798,244.720 314.859,245.600 313.952 C 246.480 313.045,247.200 312.127,247.200 311.912 C 247.200 311.697,247.740 311.017,248.400 310.400 C 249.060 309.783,249.600 309.161,249.600 309.018 C 249.600 308.874,250.139 308.181,250.798 307.478 C 251.457 306.775,251.997 306.065,251.998 305.901 C 251.999 305.736,252.630 304.934,253.400 304.118 C 254.170 303.301,254.800 302.518,254.800 302.378 C 254.800 302.237,255.181 301.690,255.646 301.161 C 256.111 300.633,256.785 299.750,257.143 299.200 C 257.884 298.062,258.040 297.855,259.407 296.200 C 259.953 295.540,260.399 294.847,260.400 294.660 C 260.400 294.474,260.940 293.817,261.600 293.200 C 262.260 292.583,262.800 291.970,262.800 291.836 C 262.800 291.702,263.340 291.028,264.000 290.337 C 264.660 289.646,265.200 288.928,265.200 288.741 C 265.200 288.554,265.920 287.659,266.800 286.752 C 267.680 285.845,268.400 284.921,268.400 284.699 C 268.400 284.476,268.799 283.948,269.287 283.524 C 271.014 282.026,270.249 282.010,199.426 282.009 C 143.877 282.009,129.788 281.907,129.532 281.504 C 129.337 281.196,129.210 281.171,129.206 281.441 " stroke="none" fill="#4c7ce4" fill-rule="evenodd"></path></g></svg>